<mxfile host="app.diagrams.net" agent="Mozilla/5.0 (X11; Linux x86_64) AppleWebKit/537.36 (KHTML, like Gecko) Chrome/134.0.0.0 Safari/537.36" version="26.1.0" pages="2">
  <diagram name="Page-1" id="PhErTqhbxqhCGvyCR48b">
    <mxGraphModel dx="1434" dy="714" grid="1" gridSize="10" guides="1" tooltips="1" connect="1" arrows="1" fold="1" page="1" pageScale="1" pageWidth="1100" pageHeight="850" math="0" shadow="0">
      <root>
        <mxCell id="0" />
        <mxCell id="1" parent="0" />
        <mxCell id="eL9Rcu17Vo4ufBU_SWcd-4" style="edgeStyle=orthogonalEdgeStyle;rounded=0;orthogonalLoop=1;jettySize=auto;html=1;" edge="1" parent="1" source="GtG8bi0Q6Z_r1jVJq6Bn-1" target="eL9Rcu17Vo4ufBU_SWcd-3">
          <mxGeometry relative="1" as="geometry" />
        </mxCell>
        <object label="Main Start" odk_type="start" form_id="questionaire" name="s_" id="GtG8bi0Q6Z_r1jVJq6Bn-1">
          <mxCell style="ellipse;whiteSpace=wrap;html=1;aspect=fixed;fontColor=default;" parent="1" vertex="1">
            <mxGeometry x="110" y="100" width="70" height="70" as="geometry" />
          </mxCell>
        </object>
        <mxCell id="eL9Rcu17Vo4ufBU_SWcd-1" value="Yes" style="edgeStyle=orthogonalEdgeStyle;rounded=0;orthogonalLoop=1;jettySize=auto;html=1;strokeColor=#000000;fillColor=#F8CECC;" edge="1" source="eL9Rcu17Vo4ufBU_SWcd-3" parent="1" target="eL9Rcu17Vo4ufBU_SWcd-5">
          <mxGeometry relative="1" as="geometry">
            <mxPoint x="400" y="130" as="targetPoint" />
            <Array as="points">
              <mxPoint x="385" y="130" />
              <mxPoint x="385" y="131" />
            </Array>
          </mxGeometry>
        </mxCell>
        <mxCell id="eL9Rcu17Vo4ufBU_SWcd-2" value="No" style="edgeStyle=orthogonalEdgeStyle;rounded=0;orthogonalLoop=1;jettySize=auto;html=1;strokeColor=#000000;fillColor=#F8CECC;" edge="1" source="eL9Rcu17Vo4ufBU_SWcd-3" parent="1" target="eL9Rcu17Vo4ufBU_SWcd-6">
          <mxGeometry x="-0.022" relative="1" as="geometry">
            <mxPoint x="310" y="170" as="targetPoint" />
            <Array as="points">
              <mxPoint x="310" y="170" />
              <mxPoint x="329" y="170" />
            </Array>
            <mxPoint as="offset" />
          </mxGeometry>
        </mxCell>
        <UserObject label="Are you happy" name="ask_" odk_type="select_one yesno" id="eL9Rcu17Vo4ufBU_SWcd-3">
          <mxCell style="html=1;whiteSpace=wrap;fillColor=none;rounded=0;strokeColor=default;align=left;points=[[0.25,0,0],[0.5,0,0],[0.75,0,0],[1,0.25,0],[1,0.5,0],[1,0.75,0],[0.75,1,0],[0.5,1,0],[0.25,1,0],[0,0.75,0],[0,0.5,0],[0,0.25,0]];shape=mxgraph.bpmn.task2;rectStyle=rounded;size=10;container=1;expand=0;collapsible=0;taskMarker=abstract;" vertex="1" parent="1">
            <mxGeometry x="250" y="110" width="120" height="40" as="geometry" />
          </mxCell>
        </UserObject>
        <object label="Activity end" name="next_" odk_type="activity_end" id="eL9Rcu17Vo4ufBU_SWcd-5">
          <mxCell style="points=[[0.145,0.145,0],[0.5,0,0],[0.855,0.145,0],[1,0.5,0],[0.855,0.855,0],[0.5,1,0],[0.145,0.855,0],[0,0.5,0]];shape=mxgraph.bpmn.event;html=1;verticalLabelPosition=bottom;labelBackgroundColor=#ffffff;verticalAlign=top;align=center;perimeter=ellipsePerimeter;outlineConnect=0;aspect=fixed;outline=end;symbol=terminate2;strokeColor=default;" vertex="1" parent="1">
            <mxGeometry x="580" y="90" width="50" height="50" as="geometry" />
          </mxCell>
        </object>
        <mxCell id="eL9Rcu17Vo4ufBU_SWcd-19" style="edgeStyle=orthogonalEdgeStyle;rounded=0;orthogonalLoop=1;jettySize=auto;html=1;" edge="1" parent="1" source="eL9Rcu17Vo4ufBU_SWcd-6" target="eL9Rcu17Vo4ufBU_SWcd-16">
          <mxGeometry relative="1" as="geometry">
            <Array as="points">
              <mxPoint x="329" y="450" />
              <mxPoint x="763" y="450" />
            </Array>
          </mxGeometry>
        </mxCell>
        <UserObject label="What do you want to do" name="select_" odk_type="select_multiple" filter="" id="eL9Rcu17Vo4ufBU_SWcd-6">
          <mxCell style="swimlane;fontStyle=0;childLayout=stackLayout;horizontal=1;startSize=30;horizontalStack=0;resizeParent=1;resizeParentMax=0;resizeLast=0;collapsible=0;marginBottom=0;fontColor=#000000;rounded=0;fillColor=none;align=left;strokeColor=#F19C99;" vertex="1" parent="1">
            <mxGeometry x="188" y="220" width="282" height="120" as="geometry" />
          </mxCell>
        </UserObject>
        <UserObject label="SeeÂ " name="opt_1" odk_type="select_option" id="eL9Rcu17Vo4ufBU_SWcd-7">
          <mxCell style="text;strokeColor=default;fillColor=none;align=left;verticalAlign=middle;spacingLeft=4;spacingRight=4;overflow=hidden;points=[[0,0.5],[1,0.5]];portConstraint=eastwest;rotatable=0;fontColor=#000000;rounded=0;dashed=1;" vertex="1" parent="eL9Rcu17Vo4ufBU_SWcd-6">
            <mxGeometry y="30" width="282" height="30" as="geometry" />
          </mxCell>
        </UserObject>
        <UserObject label="Discuss" name="opt_2" odk_type="select_option" id="eL9Rcu17Vo4ufBU_SWcd-8">
          <mxCell style="text;strokeColor=default;fillColor=none;align=left;verticalAlign=middle;spacingLeft=4;spacingRight=4;overflow=hidden;points=[[0,0.5],[1,0.5]];portConstraint=eastwest;rotatable=0;fontColor=#000000;rounded=0;dashed=1;" vertex="1" parent="eL9Rcu17Vo4ufBU_SWcd-6">
            <mxGeometry y="60" width="282" height="30" as="geometry" />
          </mxCell>
        </UserObject>
        <UserObject label="None of the above" name="opt_none" odk_type="select_option" id="eL9Rcu17Vo4ufBU_SWcd-13">
          <mxCell style="text;strokeColor=default;fillColor=none;align=left;verticalAlign=middle;spacingLeft=4;spacingRight=4;overflow=hidden;points=[[0,0.5],[1,0.5]];portConstraint=eastwest;rotatable=0;dashed=1;" vertex="1" parent="eL9Rcu17Vo4ufBU_SWcd-6">
            <mxGeometry y="90" width="282" height="30" as="geometry" />
          </mxCell>
        </UserObject>
        <mxCell id="eL9Rcu17Vo4ufBU_SWcd-17" style="edgeStyle=orthogonalEdgeStyle;rounded=0;orthogonalLoop=1;jettySize=auto;html=1;" edge="1" parent="1" source="eL9Rcu17Vo4ufBU_SWcd-14" target="eL9Rcu17Vo4ufBU_SWcd-16">
          <mxGeometry relative="1" as="geometry" />
        </mxCell>
        <object label="Other page" odk_type="goto" name="lko_" link="data:page/id,z-XgZ2SSv1hvflNaCIss" id="eL9Rcu17Vo4ufBU_SWcd-14">
          <mxCell style="shape=offPageConnector;whiteSpace=wrap;html=1;rounded=0;fontSize=12;strokeColor=default;fillColor=none;fontColor=default;" vertex="1" parent="1">
            <mxGeometry x="570" y="310" width="50" height="50" as="geometry" />
          </mxCell>
        </object>
        <mxCell id="eL9Rcu17Vo4ufBU_SWcd-15" style="edgeStyle=orthogonalEdgeStyle;rounded=0;orthogonalLoop=1;jettySize=auto;html=1;" edge="1" parent="1" source="eL9Rcu17Vo4ufBU_SWcd-7" target="eL9Rcu17Vo4ufBU_SWcd-14">
          <mxGeometry relative="1" as="geometry">
            <mxPoint x="530" y="265" as="targetPoint" />
          </mxGeometry>
        </mxCell>
        <mxCell id="eL9Rcu17Vo4ufBU_SWcd-18" style="edgeStyle=orthogonalEdgeStyle;rounded=0;orthogonalLoop=1;jettySize=auto;html=1;" edge="1" parent="1" source="eL9Rcu17Vo4ufBU_SWcd-16" target="eL9Rcu17Vo4ufBU_SWcd-5">
          <mxGeometry relative="1" as="geometry" />
        </mxCell>
        <object label="&lt;font style=&quot;font-size: 12px&quot;&gt;Goodbye&lt;/font&gt;" odk_type="note" name="label_" id="eL9Rcu17Vo4ufBU_SWcd-16">
          <mxCell style="rounded=0;whiteSpace=wrap;html=1;align=left;fillColor=none;fontSize=12;strokeColor=default;points=[[0.25,0,0],[0.5,0,0],[0.75,0,0],[1,0.25,0],[1,0.5,0],[1,0.75,0],[0.75,1,0],[0.5,1,0],[0.25,1,0],[0,0.75,0],[0,0.5,0],[0,0.25,0]];shape=mxgraph.bpmn.task2;rectStyle=rounded;size=10;container=1;expand=0;collapsible=0;taskMarker=send;" vertex="1" parent="1">
            <mxGeometry x="710" y="250" width="105" height="60" as="geometry" />
          </mxCell>
        </object>
      </root>
    </mxGraphModel>
  </diagram>
  <diagram id="z-XgZ2SSv1hvflNaCIss" name="Page-2">
    <mxGraphModel dx="1434" dy="714" grid="1" gridSize="10" guides="1" tooltips="1" connect="1" arrows="1" fold="1" page="1" pageScale="1" pageWidth="850" pageHeight="1100" math="0" shadow="0">
      <root>
        <mxCell id="0" />
        <mxCell id="1" parent="0" />
        <mxCell id="RE_KE35PTEnSoyk_lG7a-3" style="edgeStyle=orthogonalEdgeStyle;rounded=0;orthogonalLoop=1;jettySize=auto;html=1;" edge="1" parent="1" source="RE_KE35PTEnSoyk_lG7a-1" target="RE_KE35PTEnSoyk_lG7a-2">
          <mxGeometry relative="1" as="geometry" />
        </mxCell>
        <object label="&lt;span style=&quot;color: rgb(0 , 0 , 0) ; font-family: &amp;quot;helvetica&amp;quot; ; font-size: 12px ; font-style: normal ; font-weight: 400 ; letter-spacing: normal ; text-align: center ; text-indent: 0px ; text-transform: none ; word-spacing: 0px ; background-color: rgb(255 , 255 , 255) ; display: inline ; float: none&quot;&gt;Activity start&lt;/span&gt;" name="lki_" odk_type="activity_start" id="RE_KE35PTEnSoyk_lG7a-1">
          <mxCell style="points=[[0.145,0.145,0],[0.5,0,0],[0.855,0.145,0],[1,0.5,0],[0.855,0.855,0],[0.5,1,0],[0.145,0.855,0],[0,0.5,0]];shape=mxgraph.bpmn.event;html=1;verticalLabelPosition=bottom;labelBackgroundColor=#ffffff;verticalAlign=top;align=center;perimeter=ellipsePerimeter;outlineConnect=0;aspect=fixed;outline=throwing;symbol=general;" vertex="1" parent="1">
            <mxGeometry x="50" y="80" width="60" height="60" as="geometry" />
          </mxCell>
        </object>
        <mxCell id="RE_KE35PTEnSoyk_lG7a-5" style="edgeStyle=orthogonalEdgeStyle;rounded=0;orthogonalLoop=1;jettySize=auto;html=1;" edge="1" parent="1" source="RE_KE35PTEnSoyk_lG7a-2" target="RE_KE35PTEnSoyk_lG7a-4">
          <mxGeometry relative="1" as="geometry" />
        </mxCell>
        <object label="&lt;font style=&quot;font-size: 12px&quot;&gt;See&lt;/font&gt;" odk_type="note" name="label_" id="RE_KE35PTEnSoyk_lG7a-2">
          <mxCell style="rounded=0;whiteSpace=wrap;html=1;align=left;fillColor=none;fontSize=12;strokeColor=default;points=[[0.25,0,0],[0.5,0,0],[0.75,0,0],[1,0.25,0],[1,0.5,0],[1,0.75,0],[0.75,1,0],[0.5,1,0],[0.25,1,0],[0,0.75,0],[0,0.5,0],[0,0.25,0]];shape=mxgraph.bpmn.task2;rectStyle=rounded;size=10;container=1;expand=0;collapsible=0;taskMarker=send;" vertex="1" parent="1">
            <mxGeometry x="210" y="90" width="105" height="60" as="geometry" />
          </mxCell>
        </object>
        <object label="Activity end" name="next_" odk_type="activity_end" id="RE_KE35PTEnSoyk_lG7a-4">
          <mxCell style="points=[[0.145,0.145,0],[0.5,0,0],[0.855,0.145,0],[1,0.5,0],[0.855,0.855,0],[0.5,1,0],[0.145,0.855,0],[0,0.5,0]];shape=mxgraph.bpmn.event;html=1;verticalLabelPosition=bottom;labelBackgroundColor=#ffffff;verticalAlign=top;align=center;perimeter=ellipsePerimeter;outlineConnect=0;aspect=fixed;outline=end;symbol=terminate2;strokeColor=default;" vertex="1" parent="1">
            <mxGeometry x="440" y="90" width="50" height="50" as="geometry" />
          </mxCell>
        </object>
        <mxCell id="RE_KE35PTEnSoyk_lG7a-7" style="edgeStyle=orthogonalEdgeStyle;rounded=0;orthogonalLoop=1;jettySize=auto;html=1;" edge="1" parent="1" source="RE_KE35PTEnSoyk_lG7a-6" target="RE_KE35PTEnSoyk_lG7a-2">
          <mxGeometry relative="1" as="geometry" />
        </mxCell>
        <mxCell id="RE_KE35PTEnSoyk_lG7a-6" value="" style="shape=image;verticalLabelPosition=bottom;labelBackgroundColor=default;verticalAlign=top;aspect=fixed;imageAspect=0;image=data:image/jpeg,/9j/4AAQSkZJRgABAQAAAQABAAD/4QA+RXhpZgAASUkqAAgAAAACADEBAgAHAAAAJgAAADsBAgAIAAAALQAAAAAAAABHb29nbGUAZHppbWExAAAA/9sAhAADAgIICAgICAgICAgICAgICAgICAgICAgICAgICAgICAgICAgICAgICAgICAgKCAgICAkJCQgICw0KCA0ICAkIAQMEBAYFBggGBggNDQgNDQgICAgNCAgICAgICAgICAgICAgICAgICAgICAgICAgICAgICAgICAgICAgICAgICAj/wAARCAEgASADAREAAhEBAxEB/8QAHgAAAAcBAQEBAAAAAAAAAAAAAQIDBAUGBwgACQr/xABLEAACAQMBBAYHBAcGBgEDBQABAgMABBESBSExQQYHEyJRYQgycYGRobEUQlLRCSNicoLB8DOSosLh8RUkQ1Oy0mOTxOIXNERzdP/EABkBAQEBAQEBAAAAAAAAAAAAAAABAgMEBf/EACERAQEBAQADAQEAAwEBAAAAAAABEQISITFBUQNhcaEy/9oADAMBAAIRAxEAPwDkHXXV30BaiaDXRAa6KTklqaG0ktNLSDyVi1kg0lNTSTSVAg81az+rhF5q0pIy1LU0QtU8k0GqoC9pUBTJQAZKIUtondlSNHkkdgqRxo0kjseCoiAu7Hkqgk+FAikwIBByDvBG8EHmKA3aUA9pRQiSgHVQDqq7TRhJV1SizVZVLJNT0mFklqWIWWSshZJaq6XSStS1YcRy1VOEkqwKh6LoRJTDQ9rRdNDLWdQXtavs9CmWnsB2tTDSTyU1nSDy1EINJU+oQearOVw3klrX/FINLWbQUtU1kRpKgI0lEJmargTa5oEft41BAQXYgKg7zsScKFQZZmY7gFBJO4A1BqfQ/wBF7pLfgm12HtEqBntLiEWEWDzWTaDWqOPEozAc8ZGWo7w9Dz0Ol2GP+IbR7Kba7qyoEPaQbPibIKQOQO0uJV/trjAAU9jH3e2kuc26jlf0nPRA2rZbTvZ9n7Pmudlzytc27W2iVou1HaTW32dGE/6mYyLEkcLgwdjgk6wupV1zZtqzltW0XUM1q54JcxSW7kDiQsyoxA8QMVdCK3FNNHE9VRxNUwHWSmKOHqIMHoo4erq6VSWtRS6S1alhwktYwLpJTU0uktXV04jkrX1rS4lpq4HtammB7WrphkXqaxoC9NqgMlTaAL0Qk8lShB5KYhtJLWp6WG7y0qkWes6miF6jJ1sLYk93PFa2sMlxczvohgiXXJK+CcKvgqgszMQiIGdmVVZgHRXWb6Bm1tnbKtLtFl2htCa6EV1s/Z8L3ItYZI2aJkMaGW4dJE0TyKgiXtYwo0xPNLNiajOh/wCjy6W3hy1hDYJgEPtC8hjznkI7X7ZOCOeuJOIxnfi+UNbv0M/RIuSrbS25gY70Oz7PDat24XV1I4KjfxswTu9XeDnyTW8dCf0bnRSz0GWzn2jIhzr2hdSyKx3+vbwG3tGAzuVrcjcDvIzU8k1vfRHq62bsxNNhY2VjGMki1tobceZPZIpYnxOSfOpqibV2sZDgbk+beZ/kP6FDALQLQorZRwGRtxB4eR9vgRvBqUU3pd0DAVu6JoD6yOofSP2lYEMv7WNw4jmZEjCuk/op9HrvfJsq2jbOrXaB7JyTnJJs3g18c4cMCd+MgGt6rJulH6OzZ0mo2d/e2rH1UmEN3CnljTBOy/vXDN5nhTRk/SX9H5tqEk2tzYXiAbtTS2kpPh2bpNF7Cbke7Gavkusl6TdQO3bMZuNkXqr+OGIXiDHHU9k1wqDzcqDyzV01Q4rnIBByDw5g1TS6zVFKK9AoHopRXq6ul0lranMctYTDhJKIXjkqtFtdXyTQ66uw0IkpsXTTXWNTQF6aA101NBrqBKSSgaySV0+NQ3eSs2ppItWUJs1BduprqW2jt+7+ybOiDaNJuLmTULa0RuDzuAe82/s4EzLKQdK6VkdHxH1S9Hb0YNn9HbfTAPtF9KgW72hIgE0x3EpGuW+z2wYZS3Rm4Au8z5kPO1lslvLpYMOR/wBx7xUFmVs7xzojxNXDCc04UEk4Aq4YrW0tomQ+CjgP5nz+nzJTQCi49ig9QxLW82QDz5+2ssKz0h6GBsvCArcSnBW/d/CfL1T+zzLqkywkEgggjcQRgg+BHKqpI0gf7I6Ix3olgmDmB4pI5tEkkTlZVaPSssTJLGxBJDxurrpyCDg0RyN1v/or2XVLsC+yu8rYbR3YGSdEN7Cm4KMKiT27E4705yWGp1/TXFXWF1Z7T2RL2O07G5snJ0qZo/1MpwD+ouUL21xuIz2E0mDkHBVgNT/Sq/HNVXThJailQ9FKK9J6WUsklb1TmOWpZ/Ew5R6nxCwkpq6HtKqh7Sp6T0a9pUQHaVcoKZaYYAy1ZFwjLLW1NnesWpaSLVlCMklB0B6MPob3vSIi6nMljslW33RTE13jilgsilWXkbx1eBTuUXDLIkctxnX1I6vur2y2Vax2VhbpbW0XqomSWY+tJK7EvLK/F5ZGZ2PE8K5oslB6gnNkT5XHNd3u5fl7qJS9zchBljgfM+Q860qtX1+ZDv3DkPD8z50DaiwINAOqhj2aGHFlLvx4/X+v5VKlh+DUYRe3ejiTjJ7rjg4HyYfeHzHI8QS6znauzHhbS4weR+6w8VPMfMcwKrTReimyexhUEd9++/iCeC/wrgY8c+NRmpVqIj9u7DguYnguYYriCVSskM8aSxSKdxV45AyMD4EGiuRut79GZse81y7Kmk2ROSW7IarqwYlixHYSOJYAckKLedIoxgCEhQtanSuHut/0Udv7CDSX1kZLRPWv7JjdWYH4pGCpPbqDu1XUEC5G4nIJ1LFZTHNWmtLq9RSyvQLRyVuXf+tHMclPocB6wyN2lB7XQMy9b9NaKZKApkq7QHaU9hN3rNqWkmasoQmmx4nyAJPsAG8k8gASTQd2+iv+jxeTsto9IoHVch4NkMN7Dir7R053HcRYq3DAnJzJbLm1mvoDBsxlCqsZVVAVVVNKqqjAVQAAAAMAAAAbqwhVdnv+E/CgMNnP+E/L86A3/C5Pw/NfzoFICYTluB3YyMk8ufjz8M0SmF4ZHOWHsGRgez8+daU3+zt4GgHsW8D8KAOzPgfhQFIoPZoPA0XUvDJkZ/oVljCEu00HPPs3/Ph86mrhrqE5wyKUUht+85HDB3Y8/LI51YfE3HcL95feCfpn+daDyIRngB7OfwO+pgVEC/hHwFKowWoK30oSO4SS3lRJYJEeKaKRQ8cyOpSSN1OVZGUlSpGGBPGg+NfpaejpJ0b2mYkBbZt2Xl2bMSWIjGntLWVjvM1qzBckkyQtFJks0qp15ujGoparUpwr1FLI9AvHJW5/60XD1oG7SpMHhLTENNdZ00GqnkaDVU0tBmogrNQISSVYOpv0efUEdq7V/wCJ3CarDZDq66vVn2kQHt48FSHS1Q/an3grL9k9YO4Geqxa+t0bbgfECubIc1pp7NAV5QONRDSa/PLcPH+uFRFdvbjWfLl+fvo0dWc2RjmKsZpzpqoGg9QeoAIorwiHgPhUopO09vHtW074wdIXkcbiw8yc7/DHHArFah7ZTCTGneTuxzHt/PhUaWiO3EajO4DiTuGeZya6RzQe1+sCwgBM99Zwgf8AduoI/wDzkWtCqXfpGbBTjtewbH/auEm+HY9oT7s0y/xM/wBK9N6bnR+MlRfSS45LY35B9jvbop9zEVfGtYnurr0p9mbYuGsrMzrP2ZkXt41iSZV9dYSXLGRRhirqh0ZK6tD6c2WKv8kBHEEe2sig9fPUnbdINlz7OuMIzDtLW40a2tLtFYQ3CDKk6SxWRAy9rC8kZIDkiy4Piz016HXOzL252feJ2d1aSmGZAcrnAZXjbA1RSxsksb4GqN1OBkgd/ojopaw1DlHopdGoFA9alXQ66vpRhJT0hvqrCA1UAF6ANVASR6uBx0c6O3F7c29naxmW5upo7eCMZ70kjBQWIB0xpveR8YSNXc7lNLUtfbbqO6o4NhbLtNmW51C3TMsuCDcXMh13FwwJJHayszKuSI00IO6igca5VqFoe6P64bq1GoVZsVKprLe+HxqJpqzZoiO2hc/dHv8AyosMsUa0eKTBzREorZrTIaI9QeoPU0R/SC/7OJiPWbur7TxPuGT7cVirGfBay0y70orCd+j+1Tazz21xDaPdRy20jxSj7IRcuqvGVcCSOJ42AO9XIrXP0fKOLrdvGINwy3n7VwNcmPKQEfFgxr6HjPxidVatj9cVucCWF4T4oBIg+AV/cIz7edZvNana57I6VW0/9lNG5Izp1Yf3o2HHvWsWVrdS9Glj6vduPb3kEsbtG4caHU4ZXzlCOWRIF45B4YOcVOpqPph1Z9dcF9Y/aJCqTxYjuYV49qQdLRqTns5gCyEkhcOpb9Wxrz2YzjnP0tfSD27seKHa2zDbNaxydheWNzbiWALMVFvc9pG8FyrJIOwfRMFc3CEoOzBF5ktyji70mfScsOk8Vvcy7Nl2ftm2Ih7WCWO5s7yzPeMdw7i3uIZIZC0kGmO5ADSIWAm1w9J6GDQy1uh5HJXNo5RqKV1UA6qAdVA310QBehoNdDXtdXAjNJVK78/Rj+j8CJeklygJJltNlBgp0hSYry8XiVZmD2SHukKl1xWZTXPq/jFfQRjjecADmdwrDJfZ+1lZSEOrBx5ePv8ApV+RRnkJ41ASiG95c6Ru4nh+dFRVGnqD1A7sZuXwqxKe1WXqD1TQIFQU3pVfa5NI4R7v4j63w3D3VmtIXRUUheWSyK0bjKOrI48VcFWHvBIoPhj0o6OtZ3VzZucvaXE9q5AwC1vK8LHG/GShOMnFfT4u8xzqMrSAZc8aCa2X0yuof7OeQDd3WPaJu5BZNQH8IH0qWS/htXvox1xXOpdcCSaWB1oWj043gkHtATnkCufDdmud5kbldLWHTSG9Upa3ctleadUTIxiuImGGDphgJ4sgCSNWdJEyjgZIHDHRWIPTLuEju9idKLIXUckb2s9zZhY7jQ6YE3YsUgmLArKkkTWxHdOgkYqeG+4565PcKGZVftFVmVZNJXtFBIWTQ2GTWAG0sMrnB3it2NQvDJVgfRSVLA8Rqw0XD0UOqgHVQNtVEwGqgDVQF7SrqaunUp1TTbd2pa7NiYxrM2u5nBx9ns4ypuZ84IDqh0RAjDTyQocBiRL69o+02yJLezt4bSziEcFtFHBAgGEjiiUIigcThQBk4JO/fmuRIa3V2z+sxPlyHsA3UaSPRq4w5Xk4+a7x8s0Zqz0YFllAGTRUNLIScmjWC0XAZoPaqDwaglLebUPPnVjFK0tR6oENo3nZxs/gN3mx3D5/LNRWfk53nid5Piay0HTQEK0HyU9O3oebPpNfEABLxLe+jx/80YjlJ8zcQzEnnn217v8ADd5xz6YBXdBlWgmtndHCd8mQPw8z7fD6+yufXf8AGpyscMQUYUAAchXG3W1vnsFljTO4gKytzVhggj2EA+0A7iARpVM6xLqeZU7djJJbjSsrjMph5I0vrSorZdTJrdS0g1DUQEY6UiCWqxLh/G1ZrpDqGSin8MlYqnOqooQ9AIagbmShopkomi6quIKWpg07qA2bt2LaFptLY2zL+9a3mKsYLaY20qEYuLWa6EZgjWSJsMXfMbGNwCypVuZ7H1/s3LKrMjxllVjHIAHQsAdDgEgMucHBIyDgnjXBo500UaKQqQw4gg/CiLurAgEcCM58jvo5oi8utR3cBw/Oo1hvmqoKmmBVc8N9NCq2jHkffu+tVCq7NbyFE0ZQEPHPju/rf/XOinoNGRloir9Lr7LLGPu95vaeA9y7/wCKs1qIAVFDQexQcBfpR+heH2RtFUHeW4sZn590rcWynxHeuyPDf416f8F92M9OGLHZzSHCjdzY8B/r5DfXrvWMyatGztjrHv4t+I/yHL6+dcL1rcmH1ZUIqC5bOP6tP3V+grbRLa2ylmUqeODg+3iD5HmKGMVvrNopHjb1kbSfqD7xg++tRwLW8lSrDxGrHx0PoJKtgdh65tBD0Bg1A0L1rGRS1awDqqAhlqyD6efor74tsG/QnPZ7Zn0jwV7GwbA/i1H2muXf0dcbas898cRuPs5H3fQ+Vc1iJxRoVqCwbMdniCjdgkEnmBwx9PdUc6XTZXi3wH9fShpZdnL5n3/lihpVbZRyH1+tE0oKoGiGt3d43Dj9P9arUiPFVo5tbjG48Pp/pUsZp7PMFVmPBQSfd+fD21EZ5PMXYseLEk++sNAAoE5btF9ZlHtIz8ONAym6SRDhqb2DHzbFXByt6fG37a62da2EifrpLtbqEhjmNbdHSRyAACHE/YhSwyHZgcxGuv8Ajll9GOGJthPGMBQVHDRwHu4/Ku1IZVB6gEUWLfslv1Sez6E1YsJ7W2loGB6x4eQ8fy8/YaWjMundlpMMvKRGU/vRud5PiVYf3avNc+kDA9aYSET1mukp1A9RT0SVnAIepgMGqLpoZK6oKZKAmqgAy1m0fSb9E9tEHZ22Ys702jDJjyltEUfHsT8K49Duk+dZFevLfQxHLiPZ/W6jUNzQWrZsekBfL58/51mMU8rTL1B6g9QNrq607hx+lWNSI4mq28KFLRQE8Af686Mqt056YCJFiHfy2GIPdGN4QnBzv37twwBnjjNFLfpHIeGlfYMn55HyqYG0t67cXY+WcD4Dd8qBDRVAHdvJAHMncB5k8gPGg+e3XF1gf8S2hPdKcw5ENt//AJoiwjbkf1rF58HeDKV+6K9HMyLFKzV0M9pbNEisBgOR3WxwPLPiM8R4Z4caDN4+lGljHOhR1JVsbwCOO7iB4Y1Zrfh+xjyTNtdq4yjBh5H6jiPYa52Y1q02F+EgVj+0APE6jgf1ypuKgp7gsSx3k/1j2CsBPpZs/tLAsBvhk1j2Z0t7grav4a3ynUZrA9dXFIwNWV5p5G1Yjqdq9aB80we1VMDUtV0FL1nQWg9WB3/+iWucS9IEycFNlOByyDtFSceJBUE+Q8BWeh9E6wGu0bXUu7iN4/mPf9cUWIrZkWpx4Df8OHzqVasMZ3ioyeVph6g9QN7u707hxPy86LDJLZm34O/md1XVOY9meJ+H5n8qaaci2RQScADeS3AAcyTwqGqh0g6Wl8pESE4F+BbyHNV+Z8huIUTpXb5hJ/Cyn56f81FVa0uCvmPD8vCgloZQ3D4c6A+mgxf0qesP7Fs428bYuNoa4FwcMtuAPtUg3g+o6wAjerTq33a3xNo4jru0LmgEGgoHWd0dyBcoN4wsuPDgrn2bkPlp8DW+b+OfUK9TPUXtDbEv/LDsYEYCW8k1CKP8SpjBmlC7xEh5rraMMGp33IxJXVXSv0Q4vs8Ys7ibt4kw3bkOk5zqLFVCmJjw7mRpA7rsMt5fLXbHPHSboZdWbabiJkGcLIO9E5/ZkG7O49xtL44qK0pfYlsJIJI24PrQ+xkAP1rcT8YkYijFG3MpKt7VOD8xXSOH6ewPUqH8ZrNdy4NUGDUBxLQNqyPUHqgDVUwdw/ooNqgbT2xBkapNn20wHMiC5ZGIHgDcLnw1DxrPY+mKmuYWhtmbgM/T40ANsQx6m3HUcnHL/TOTWaCCoHcZ3VpkaqhC5udPtosNIb3B3gHz5/GjR9FeKeePbu/0qMhvb1I1LuQFHPxPgBzJ8BVFA270kac43rGOCePgWxxPlwHnxJpGKtAjtW31RSD9hse0DI+YoKCtAorY4UWJC2vgdzbvPl7/AA+lEcGdd/TGXau0pp4ldraI/ZrQj1GhiZszKdRQi4kLyqwwTE0QYApgd+ckailRdF5j90D2sP5E1rYHcXQx/vOg9mW+oWp5KdRdDF+9Ix9gA+uqnkJjYfV1BcP2TqzxsD2oLEZj4MO7pI1ZC5G8E55VnUxs1z1iJs+FIkjhCooWG3jQRgKOGAmlUTz079+Ax3Vnx0TPQzr72ZLpW9We1kJA1g9tbkk4ABjQTKSTwMRUc33ZMvKNh6QdFdgtGyT20l1M4IlCPKkf7jiRhG2OBYRSZ37yMVnaOPOszq42fBdOlhHLbxHe0bTGdRJk69DMqEKNy6BhVIIAAwK6c9K5B6xrRY7+5RCGAkGSBgayimTdk8JCwO/jmu0cevqKhajKQhas46S+i2amtDB6ugwNUJ1keoE2akHhVo6t/Rj9JIYOlIimkEbX2zbqzgJBIecS212IyQMKWjtZSpYqCwC51MoOe/kZl9vsLBspF5aj58Phw+Oa440dGk+JAVFRl7s7HeXhzHh7PLy/oZoa27VYzQXNzpHnyFUiMZiT4k0aY718elPsro66wX32p7uSFZ4rS2tnd3iZ3jD9tKYbRMMj6le5WQBc6DrjDpNHI/WP+kv2nMGTZVha2I3hZrx2vJyCNx7NBFBC4O/B+2Ly38Tucz9HN+2PSi6XxTi7utqbQwwC/wDRNsFzuKWvZNZROfOBHYHB45Hec82M+2tdDPT92zGqGdLHaEekDU0T2s7kYGWlgbsFbjkLZgZ5DFc7xGnQHVT6cNrfusVxYXFpIQxDJLFcwMVPqq5+zTE472OwxuIBYjfm8Z+jc9ldaOz5ty3Uak7tMuYTv5frQgPuJrngqt3tSNCRqDYOO73s+8bt/maCKuekp+4oHm28/DgPnRcRU947nvMTv4cvhwHwor5n7CvHSOMo7odC+ozL90fhIr19faiz2fT+6T/qBx4SKD8xpb4tWMNTtl1qn/qQ++Nv8rD/AD08TU5ZdYdq+Mu0ZPKRSP8AEupf8VTxXU5N1q29nGyxtruHwWIUsIl+6v4S+/VgnA1DOojTUNUa06UXd9P2NpbyXE8gZ8AgvpX1pJGYiOKJdwaWV440yoLLkCmo626h/RWto4Ydp7VvFnujJm1toAxsopI3OgySMqzXMwaNmGAkCb/1c+lJBi9fxGn9Y1+kFu0p3Sbkj4d52zjPiFALnyXzxWZNWOTen22Ehw8jAdxiAT3nIJOAOLMfKuv1XEl7ds8jyP67uzvux3mYs27lvJ3V15+OHRa3PClRI25o3z8Oa5tvVR6g9QEY0gJWgIrNC+xOkU1pcwXdu2ie1mjnhf8ADJE4dCfFcjDDmpI51qzXK3K++PUH1ww7b2ZZ30RGLiBJcZBKt6ssTEE5kglV4ZP2kzzOPN8dWimiR6oleosMLuyGcghcnBzwyee7+vZTAEXR9c5clj8B8t/zq4qRgtlX1VA9g/nxqj5+fpFOiy3e0UQkK6bNt3ic8FcT3vrH8DDKt5HPFRjUWONNhdDRAcyjMykgg8I2U4IA5sCMFjwI3AbyaLETux41qIsHVH6Li7auJEhb7EgBDzpHqi7dlJhQw5RWJbDSdmY3EQ9dS8RK9YKn0h6LXex782t5CYLm1ZWZAdSSREkLNbyYUS28yhxHKApyHRljkjljjS6sbnsjaQlUHOTgH94Hgw9o/reKy00novPqhXxTKH3cP8JWud+pUtoqIFU3ig+Zey/7OP8AcX6CvX19SfDqoH2y9jSTHCLu5sdyr7T/ACGT5UaXnYvRaOHDHvv+Ijh+6OXt3nzHChhy3QKO8uI9c3YAjDtpyWxjSFz3Vc7xqfIHd3NuU56GxdBOl1pssy2JtI0hLjXOqlpZMgMpuc5eQqDuZc6QFCxgDdi86Lp0n6y4oUskhnzFFI08UUZ7RQS5btHcHONWqMKQWAaTxeszkR/Wx1tQ3UyrbyK8UagIdQxqcAu2M5JBwnlpPiRVkxPjJOkmxEu1Ik3txSQYLIT4fs+K8CPDAI1LjNjnjrD6AyROSVxIN+71ZkH3lPNhzHHkd+M9ZWKolu1WspKA1K1ydCsOgaD1B6oE2rUBa0BFc6Gdxzrq5X67v/Redd7RzXWxJHIzqv7Ak8HUKl5bjU/B10XCxogXCXbMe8K4dz9dOX1O2TtRZkDDceDL+E/lzB5j31zU8qD1WCN29PpRT/8AIvwGTUtQ7tbjkfcasSU8qtPnp+ki2h2V1MwOljsiGNTzDTXF5EpHsLg+6t8qwXp/s4FbS+j/ALK+toJsjh2jRIzf31ZX8S3aHlUl/DUF0f2HJczJDEO8548kUes7fsqPicAbyAd7kR2j1H3kFk9nYjSoMmIjuDyyEFnZwN7M2CdQGFGF3ADHD6NO6/8AqAtNv2ghm/U3UOprK9VQ0ltIwGpWXK9rbS6VE1uWUOFVlaKWOGaPW4OFrTo5e7NkaxvouxurQhGAJaKaFsmKe3kKr21vKoKpJpUho3R1jkikjj201bq/2gG1AHcwDjyI3MPbvHwrHQuWisshVKNPmPsdCUjABJKJgAZJ7o4AV6+/rK7bF6EE4ab/AOmp3/xMOHsX48qjWLDLtWCEaWkjjA4LkA+5Bv8AgKhqHu+se3X1RJJ+6ukf4yp/wmrqag7zrNkP9nEiebEuce7QAfjU0076EdZTXUskNwwMwP6pjgGREUKU82jC5HNk8ShJ1mJLq47b2v2Fu8n3t6p5u25fbj1j5KaxWkF0NuC8CDezKWTxO45H+EiiLdZbBYnvd3yG9j/IfP2VnVXQdCkMJUgdp6ys2/Sw4DJzgHg2PHyFWUct9bvRE285mVdKTMQ68NE49cfx4L8+8JPKukrn1FRt6Vnk7FYdA0HqD1ARhSAlaHqzQ1uBxro436ler7p7PsvaFptG3/trSdJlGcB1BxJExwe5NGXibd6rms2bFlyvur1bdYEVzb21/bNrtruCKdORaKVQ4BBxpkXOCDgqwZTjeK8zu1qCcMAynIIyD5f18KrJSghOlTd1B4lj8APzrFIUsZMop8h8RuP0qudSVrccj7qutyvmt+lP2np2laRA75LO3YjxSKa9z/jdD7q6cqgeiGwxe9HLJBgvHaR9kTjdLagxYyeGoI0ZPIMfCsX/AOlMOi919hhIijL3MoBlmZDojHKKMY7+neWY4Vn399QuNX2asnUxtBztrZ807N/+470kmQAOzk3ZOAB4KMDwFEaV6YvX3tiyt4Jtk3H2SBpjBO4t4JpssuuGQNcJLHEhMckZHZFiZI8Mpzm8yUrj5etXal85nvb+5u5F7ids+Y0HrN2cChYI9ZI1GONC2lc50rjrOYRofVl1jFLhe0Q6N5kZN6quCC7Kd4A8icnAAzgVz65XWyy9ZVuPVWVvYqgfN8/KufjVwzk6zx92E+1pMfIIfrTxMccS9Cbm1HZ27w7lC63QiVgBjOomRN+OAVADyyK7W6nxU9tbNv8Af2omdeB0kumP3YyQB7VFEVwDG7gRxHAj3cqA1AndT6VZvAE+/l86smpaqVlcurq0ZIkVgyFd7ahvBA359mDmvRZHKNmuNtG9SFX/AFRRdUkeRqMh3ErxGkAZB3kaiCAd9eWu/wBXjq7jVBIigD1W8zxByefBayrUuj2ycfrG4/cHh+1+Xlv5iipie8ReJA8ufwG+iMw64dixzW7voYo5EbtuBV/+nKBv4MAp8TpGN7VqJfblxYSrMrDDKSCPMbjXSuXMw4FYdA0HqD1ABFAQirKC1Q3uB9KrlYj5xViPot+i/wCuXtrW62HM3fsybuyBIybaZ8XMSgKN0Nwyy5LMzfa24CMV5+5ldua+hXRbbvZtoc9xjuP4WPP908/A7/Gua2LxTGcVzpU/eQeCk/E/6VK1HthyZQjwPyO/65pHPpJE1RwX+kQ6gry/uodtQ65rW3sktLiGJQZrcRy3ExuyDkyQOJQkhQaoOzR2Vo2mkg6c1piHVBtLTZrZB2K27SMoYgllmlebUSAM6XdlAxhV0eO/VjUpDr36M7YjtYLzZ1yqQyArLH2UfaLKHdVxM4bSsigaMqgEgYGQaowXNmikdQPQ+fLX1/NJLeZZIElmaSW3TOHcAsTG8pAA04xGAQcSEDdz8WOlukN3/wAX2Xd7Ol0m6eEtbM25ZbiHE1vkjg4mjTVj1lzgHeKxPVLHL3V10ae5jTRuQjWzsMBQ28btxLacd3j44G+um4y1W+2XHbQCOMY1sNRPrPjeWY+3AwNwB3AVjdaI7G2j9w/wn+X5fDwpVTimsilbWsNYP4gTj8vfW0VrGPaKMkbvZ0cgxJGjj9pQ31G6ggr7q5tWyQHiPHKPu+D6lA9mPdQUHpZ0JVQAs+tCwBwmCAN+A2og7wN4XHkasuFhhZbNSMYRQPE8WPtPH3cPKs3q1ckJXvEHy+hpEah1EGWe6ZGwyLE5y2clgUKqccRzJ48Bv1bpixsW39pPDgStoznSF+8Bx043kDdnPDO+oe1ZXbjSNoiXHizb8DmcA49mScmiX0s8apLE1vJ6rqUzzOefk4PeBxxHlvLK5a6xOjbQTNqG8N2cnhqX1W9jpgjyC+NdImKxWR6qPUHqD1AFAUpTQ3nFac+kfMKrK39SHWnJsTa1ntKPJFvKDNGv/VtnHZ3EXFQS8TMF1HCvob7oqdTY1zX3C2TteK4iingdZYZ40mikQ5WSKVQ8bqRuKsjBgfA15XZfuiO3tQ7Jz3gO4T95Ry/eX5j2GrEwn0mbMnsQD5k/zrNQXYUmGYeIz8P96RKdXV1ncOH1qhvRXIfX/wCiu1vMdrbFh1DJN9s2Ib2jY5knsUHFl9d7JfXxqh76iCfc69ZQt0Y2dHPYRxSKJIpYSGHJkck7iN445DDBBwRggVj9WuUOt3qjW3nMFwnap69tORpcpnirrgrIhwHCkDODjS65781WU31htOzPaWl7dui7wO2dnTG8HsmLRsQRuMaBv2RjNbRq/Uh1ji8hMMukXcGTIAoTtlZv7cKMDUWOmUADEmDpUSIKxYqxdKbjLhfwr823/TFIqGFUWLZO0NQ0n1h8x+fj/vWaImcd5v3j9a0IXbmz/wDqDl63s/F7ufx8aIqd3t1V3L3j/hHv5+74iiYh7raDv6x3eA3D4fnk1YYg+knqL+//AJTUortYQjPbliqqMknA9/8AW/yrUWNu6lYEt5mycJHays7H9+LU3tPIewVa3+Ju5sri+lMunQh3KX3BUHALzY7ySR3SxO8bqwyt3RzoZboNMkkis3/V7unPgVxlV89Z47/ET4WLDN1VvxjnRvDUpX5qZPjis6mMw62+p+4mK4EbSOhVsSKMhMaJe/o3qe6SeIC+DY3Olcrn2g+YOQfMHmDyPMVpkIWrgMErQ8UqYCEVB6g9UCE61ue2bNR8y1XOGUgqj6g/o1uuT7bsqTZUzlrjZbDstRJZ7GdmaPezEn7PL2kOBhUiNuoFebuZXbmuy7G1kYgxg5BBDDcAR5ncK5tLFtAOx1uBk4B08NQUA8hjPHHnzxVZI276SDjOOR5jmPhWsFk/4ajgMuQCMjG/5H86mBrLsdhww3yPz3fOpgZyREcQR7aDDOvzqhvZVa92NIRdplpbFpNEF8vFuyZmCW15zR2xBM2VlEZf7RHqZ+rrkTanWKL4fZb4vHLFIQYbiNYZYpV7rLr0I6sPVaNyrEjBTIGN5l9NI+bq/hPBpF96kfNc/OmmKb0t6IWtkyXxuvs88bfq2WPVJMeBiMSOO3V17rAjKqc64sB1v1Etc3Zdi5GCxzjjjyzzwN2fKqogqi0bD6DXEhDY7EZ3M+5vcnrf3goPjWbUZ5t/pf2c8kbYUamMcmMq66iA3PSTzBGB+Lgapohui4zq1A8DnI93Kqqt7Y2HjLoN3Er4eY8vLl7OAQwqz6iL6R+ov7/+VqlRXqwiL25tmSEK0TaW1YzpVt2DncwYDlvxmuvHOpbi89SXS2cSPPcYni7sfZsiAMNQZmGlVyVZFK5OMg8NxF7i82366r2R0htnVXNukitggpLMoI81Z23jgVJXByN1cLK2teyOuLZsL6OxghkUgapLKN95AO6VVkYDfvLFcH41LzWT7pv6Q2zIYhJd3VjgjCiMa7huAwkduTOQCRnu6V4nAzWMo5L60PSThuDKLCCdWkVo/tVzIqsqsChMNtGDp7hOhpJQVJBMZIIPWTDWExxgAbq6RA1QYR0BjFQEK0BStTAQpUwJyCrAwnStOJjOlWDoz9HXttoel2y0DYjuRd20y8pUaznkRG8hcRQyD9pF5ZB5f5J6aj7ZqoG4DA8BwrzqRsGBMineM5x8j9BW42aX2zyu8b1+nkfzqaH2wbzB0Hgd6+3mPfx9ufGqJygAigbybLQ8sezd8uHyrKOX/TP9HXZ9zZTbVe6ttnXlqg/5q4JjguhuWO1udCu7vIcRQSRRyTq5RVjuF/Ut05/jUcWdG9jX8KKVOqNlBVMpKmGGVK97IGMHC4U+daVnFz1a7Rk2hC1ws1zrkBM2g4CxgyBGUDTCpKkALiPvbiC2KuxMbpsjqydt8zhB+BMM/vb1F92us+Srtsjo5BB/ZoA34z3n/vHeM+AwPKsW00vtu/7KGWTmkbsPbpOn4tikHMnSvYvaxd0ZePeviR95feBkeYHnXSCgWO0Hj3oxHlyPtB3H4VoWaw6YDcJFx+0u8e9eI92fZQKbQ2WrgyQkMOLKv1A5HxX/AGoqndJPUX9/+TUrNVqSTlSQV3pQpYxIOLFsDzOkD6104uSufTVOhuzhFAqjz9+N2feQT76jpJi+dEelBt20tkwse8OOk/jUf+Q5geIGc2KpXWp1mG3mmgjX/mNWXZx3YtYDqMH130MpH3BkZ1YK0jN6Y407SO0jsXdjlnbezHzPlwA4AYAwABWvxzn05jFY+uh4IvGroMBVA4qaBKVNAaaughjqgpioG8i1kNJ0rTn0YSpVZaL6Le3Gtuk2wZlIBG1rCNs/9ua4jgl5jeY5HA8D48KnfxeX30NeVpGWE2JT5lh8Tu+eKradIqCJvLEodS8Ac+a/6VROWN2HUN7iPAjj+Y8qmBxWhlXXx6R+z+j8Ia5YzXUo/wCWsYSO3m4jtHJyILdSDquJN24qizSFInsmj5j9ePXhtHbcr3N/LlIzI1raRgrbWaspQCJDvaUqSJLmQtLIWcAxx9nDH0nppO9SfSXtrRYmPfgGkZ4mMHA/und5BkqUap0aZftEIb1XcRt5LL+rLe1Q2oeYrNE1e2jRu0bbmRip9oOMjyPEeIxXP6aRqip9Z9/otSvOSRE9wJkP/hj31qDIVNaVnnS7Y/ZS6gO5Jlh4BvvL8e8PI45VqIhAKoWt7hkOVJU+IOP9x5HdRNF6Th5Ie0IAIYEkDBYHI1EDdnJGSAM8cczZBTaqEorPVMHPCNN37zE/RR8xSfDGpWEGFRBvOFUAbyWPIDiSTwA3mjUaf0O6ib+5Ks8Ytosglp8h2H7MI/WZ/wD7BEN/E8KxepBzZ133kUu175oJBLEJVjEgGFdoYo4ZCo35TtEYK2SGADDcwrfN9OPV9qrClGuZkO4VqRo901NAiOs6DBKaDlKi4KY6GC6KuoKY6uhrcR1sNJFqRKZTR1py+Feju3GtLq2u1GWtriC4AzjLQyrIBnBxkrxwal+E+v0Wawd44HePYeFeVqq+Hwc+efnmq6LSrZGfHf8AGoBoELaLQ+V9VtzL4HkR5ciOQPlu1BzB6SvpzQWBex2OYru+DPHPdEiS0smTKuoxuurpWGjslPYwsG7RmaM276nK4+f219szXM0txczSXFxO5kmnmcvJI55sx5AAKiKAkaKqIqKiqOioTpFJiJvMqPmD9BRDvqo6QmCUnkpDED7yN3ZB54AUj9oCoa6UWXIDKeIBUjz3gj5GstNX6eWgkWC8Ubp401+TFAyn3rlfLQPGufxmKdTVZr1uX2Xhjz6qtIR+8Qq/DQ3xrUGfg1pTTbOzBNGyHjxU+DDgfZyPkTViMxZCCQRggkEeBG4j3GtCQsbH7ze4fnRlIyRhgVO8MCCPIjBrTTNb60Mbsh4qce0cj7xg++jK59G9gRPbo7qdWpjkEgkByMHljA8M4qJuOierTrFsYABFZQwTEYLs7NI+eIFw+tsE/cygzwXdWbzv61Lq69ZHSi4n2Tf/AGTMVx9knCaSTIrCMkiMjQQ7JkI4wVZlI3rXLMo+btpGN2OGBivRXGTafotT/TqewR0vwPAlc2ghKAwSijlaJoumgDRRRTHRDaeOtysmMqVQ1ljqxmzUddpuPsNX8Yj9CXVj0hW72Zs67U5W5sLO4B8RNbRyf5q8jX6WUVptO2d4qxa3ZUVAdTMQqqBzZiQAMY3kgUGa9L/SNsoMrbA3kg3ZQ6IAfOVgS/l2SOp4ahUwYJ1mddl/cQya5jFGRpWGDMaEtu7xyZJNxyRI7L3c6RWlcQXlkI5HjUBVR2RQBgBVJCgDkMAYHhXVoC0EL0sk7qDxYn4DH+aiVF9GbrRMng2UP8XD/FirWXR/VztrXEYmPei9XzjPD+6cr5ArWK06c6CQi62YISd664s/hZW1xn+EMntHtrlfqVnEsZUlWGCpKkeBBwR7juqh1tboHHc26NoTtgCVZlB1AkkIxI4Y3g/dJ8CakuKyq66LxZKtFpYEggFlII4ggHG72V0UzfoZEeDOvvBH0B+dBRumPVnpkEqOrahvVlK95cb85YEkY3HA3Z51qVFVu9myR+ujL54yv94ZHzrWhuDSCsdMtn+rKP3W+qn6j4VSrb0d2Y/2SJgMqFBbHHeNWccwNW//AHIkrnSwqotlr1ky7KtnnlcMrAJDbuNRkfioHBlGM54qqaiRwBxZLWp6crRqOQCjJwozpUclXUWbC8BqZmwBkk5JtMPIY6qn0KVi0OgKjWvaaJoQlAoVooClDBSlAGigRmShTGaKukrJo6U+BnPDWpXPrn+PuN6Hu2RP0U2FIDkLsyCHPnbKbdh/C0RHury361+rr0h6QxWsfaSHyRB6zt4KPqx3KOPIGtOces3pLNdOjyMdGTpiBPZJjgQvAvgkGQjUfIAASNKatVFT6c33eSIchrb2nIX4DJ94rUVhXTW303L/ALYVx71APzU1uKiUqit9K5O+g8Fz/eP/AONGag1bBBHEHI9o3iiNg6L7e7KSKceqQNQHNGHeHtHEftKKiuw+onaYKzxggj9XMuOYYFWI8sCP4iuXRXus7YeiYSqO7Nx8pFwD/eGG8zqqGnsKaQFHBQB8BisntWOmnRHtx2kYxMo4cO0A5H9ofdPP1TyK6lVmHDcdxG4g7iMcQRyIroqM6TJmMH8LD4HI+pFBVw1Awu+j8L8V0nxTun/1PvBq6IDa3QBnVkRg2oYCsMNnljGQSDg8Fq6i07H2M1tFHA66XjRFcH8WkZ38x4EbiMEVnTEVtW0SFhKI9QJxpzhVbiGxpPHB3cAfdjX1Mc/9YPSKa6u5WlOBG7xxoD3Y0VsbvFnwGZjvY44BUVbmIg4Y6kD+GOloeRJWWi4WgNpoodNAfRQBooA0UAFKBKRKBrNHVZwymhrUuoaOlX4Pqh6FXXDabO6F7M7dx2jXu0LG2gUjtJp2vLi4KqD92KKUzSPwSMfeZkR+HX3UWnbG3pLlzLI2on1ceqq8lQclHxJ3kkkmsNfFd6SQ5iz+Fgfj3f5irFVlTWkZftG+7SV3/Exx+6Ny/BQK1GlA6x7fDxP4qyn+Egj/AMz8K3BVY6oqXSGTMreQUfIH6mjNR2miLz0SudUOOaMV93rD6491B0v6L/Sn/mFgY97Q8Q84yO0T+60ejyBTxrn1FdI9JbJJIwj/AI0dSACQUOcgEjO7KneMhuI4jkiHu+iUyqHQdrGeDxZb+8mA6kc+7geNF1C5qopvTboh2mZoh+sG91H3wPvAfjHh94eYAbUrUZhtRNUTj9kn3rvHzFbVS1agXt4SxCqMk/1nyFBZ9m7LEYzxbG8+HkPLz4ny4UF06SdGFuI1IwsqqNL+O71W/ZPI8VO8cSDkZHtrZTFZInXS43YPJhvX3E43jcQeYNblHMfTez03UvLVpYe9FB+YNbYR0MVQPo46w1h1GlFKhKAQlAOmgPpq4uAxTEBpqANNAR0oG8iUDWWOqzTOaCtz2jT/AEZYZJds2SF3MVqt5cJGWYxoZIDFIUQnSjSO8RdlAL9mmc6Vxy79RY7z2XtDScH1T8j4+zxH9Hz6uJjaMWqNxxypI928fStjM+ld/wBnA3i/cH8Xrf4QffiugzyOtKr3WFb5gVvwSD4MGH101YKDHWhSr6XLufFm+Gd3yozSNXEWDoZc4dk/EuR7V/0J+FZGm9BOlBsry2uRnTFKhkA3kxah2gwOJ05IHMgUs1Xbtvt2O4AkidXRgCpU57p3jdxGfMCuAl9ibbaFsjep9ZfHzHgw8fcaiLdc7ItrpQ5QNn747rg+BI35Hg2R7agqe1erJxvhcOPwv3W9zDuk+0IKarFesfq9kjLSiNkJyZUIwD4yIRuP7Wkkfe/FXSVdYLabNZmKj7pIJPAY3b/yrarVY2CxjA955n/TyoHDUGhIdw9g+lYRB9JujS3C5GFlUd1vEfhb9nwPFTv5kGjjvrt2AYb0alKlk4HkQzE/NuW7GPEVvUqjxRUIeIlRo4RaBTTWsXA6aYrwSrkQv2dXFFMdPYDsqADFUuBJ0rOJYRdKiEHioGssVX4zW0+h/srVtO4l5RWTqf3pp4dPyif+hWP8l9EdgAV520rsnaOO63qngfDy9n0qys1knT+6/XdkOEWc/vE/yUL8TXonxVbSqGHSa3128o8E1e9MP/lqwZY0mAT4An4b60KOlGBqBxsu50So3IMM+w7m+RNBorCoNX6penbRII2Y6UODgnUgPquuN+MZUqOOM8dxz3Go3/ZvS1sDViRSAQwwDg8Dkd1t3s9tckXDo30sCtmNs59aM7iR7PEcmGceecVEaVY7QWRQynI5+IPgRyNZA3ukqQyhgfusAQfcd1Bmd71L7PYsy26RszMx06ghZjknSGAGT+HAHhXSWtIS76ordP8A+MrDxVpD8RqyPhjzq6mo/wD/AE+sv+wv95//AGq6akB0Yt/+0Pi3/tUQ22nsuzhjkmmEcUUSNJJJI5VERRlmZi2AoAyTRdfPnr+604trXqvbQCG1t1eK3JBE04dlLTTajlQxReyiODGmS3ekZU3IM8jjqqXRKilo0rUn6shcR1pQ6KYDCOmBcxVnagDFTyNFMVPI0XsquqSkjqhsyVixLCZSoybyx1VdD+htsshtpTEbiLSIHzX7S7j4PHXH/JcxHTIFcmoGiM36SbJ1ySOvrF2yPxYPLwOBw4Gu3N9QVvG+ugFowQVPAgg+wjBqwYltjKRyA8QCp9pOk1pKqK0ZGxQFag0PZN1riRuZUA+0bj8waCc6O7Q7OVSfVbuN7DjB9xwc+GatWNb2H0meHulj2fhx0k8SAeXMr7+Oc8LGlzg22xAYMGB3g4/LFYFh2b1xy2KvNJpaGJGkl1sVHZxqXYljnGlQSCc4+OX1nGdQ/pONnNvfZe0F8le1fH96WP6Ct+Bp8n6SnY33rDaw9kVi3/3y08TU3YfpDejz+t/xGE+Ellqx74ZZh8M08ah9L6bPRWX17qdT4nZ98D8Ut2z780yhGL0qejTnEe1R7JrPaEP+OS0WM+9lq5Ryj6RnpDSbYlNtbFo9mQvlQcq95Ih3TzLxWJSNUEDbxulkAk7NLfUi4xpI6rRZEqBZErUn6sOo460pcRVjamjaKiB0UCuirhgNFQBooA0UCUkValIayRVpogVrFiWEnSojqX0RdnlbC6kI3SXz6fNEt7Zf/PtB7q5d+6NzrkujCoRRi2d/jv8AjXZkw2jskPvG5vHkfI/n9a2K9JEVOCMEcq1qsU6x49Dyr+KXPuYdp/MVqJVKU1WRqApNBbuhd1lHT8Lah7GH5gn30VYGFaRoXR2/7WJSfWXuN7Rz94wfbmudaWLZG1miPih4r/NfA/I/AjFgrXpI9LVi2RIqN3rx0tVx+FsvMD4fqY5FOcYLDxFTmexxwsNdvFkultVyQOI7epaF44KyuHMcFFLqlRSipQKpHWpGocxxVoOY46zbrOlglTFwPZ0wwPZ0wwuY6uUAY6e1oDHRAdnUCTx0Q3kiqy4sN5Iqv1TV0pYldjejVYFNjWxIwZHuZPcbmUIfeirXl7+o08CsKTu3wjHwVj8jViapIrrAZatSkbzZyyDfuI4NzH5jy+lSK5868NlPHcRgqe9HqyASDg6QcgeArtErNSpHEEe0Gqy92g8aANdBM9EbrTMBycFff6w+Yx76KvZFaRN9EL/RLpPqyd3+Ier8d6+8VKsWrbu3IraJ5pnCRoN5O8k8lUDezsdyqMkmuauZOn3TyXaEoZgUhQnsYM5CA7i743NK4Ayd6oO6v3mfWsq4sFPIKpDWVwukNFLIlUKqlRRwtWTTCqRVqRo5jipuJacpHWELpHVxcLCOrlMCEq+Kh0U8TDgxU9tYDsqumCmKmpgOyqbDCckdSz+IbyR1EIPHUQnFs9nZUQandgqjxLHA9g8TyG+t6Ozeqi6SO1hs8963jVFPDtFHFgOTZJJHgc+OPN3Pei8gVzMNNrnET+zHxIH86shVQ012QIFSoY7Q2wE3Lvf5L7fPyrUjTLusCYtJGSSSVbef3v63V15RWg1VkJFAm8Kc1X3gflQNDGgIZY4wVIIJRCcg5HL/AHqNY0+x2TbTxrIIwNQ+6WXB4MuAQNxyOH1qbQnL0IizlWkU8t4ODyO8Z+dNHPHT3plLfTFmbMMbMIEX1NOSBLjm8i4JO/SDpG7jMFcEFQKiKgUWOijiOgUVKphRY6uLhaOKqpwkVTU04SOsoXSOtNHCR1cz6FhFT20N2PlV9noIiqYaX01pHtFABjoCmKphpKSKntfps8dLGbCDxVipq/8AVR0byzXLjcuUi/eIw7j90HQCOZfwqI0+GZlYMpKspyCOII/rhwPCg1Xoz0gW4TO4OuA6+B8R+y3Lw3jlk+fqZQ46QH9UfMqPnn+VSFVQ11qIXae2/uofa3/r+fw8asghlraqj079eP8Acb/yrfKVW60ySknA9tKuGzyE8ayoAaC39X22NLmEnc/eXycDeP4lHxUeNSqsfTza3YWdzKDhliYIf/kfuR/42WsjliOHG7wohQR0UYJQHCVZDCixVcilVhrSlkhrOppdIqmppZI6BdIqsWF0irXxqQ5jiphaW01R7RQwOihhyYqzrewBhpp6FMVXUyAMVNXITeOqxYQeKhr1jslpZFjT1nYAeA8WPkoyx8hWf+pW52FgsUaRoMKihR544k+ZOSTzJNYZKGgdbL2o8MgkTiNxHJlPFT5H5HB5CpZvoaHtXbUckCSK2FLZOeKkA5VvME+/djORnjzPYoe09sl+6u5fm3t8vL4+FdsRHVVGSgqPT5u/H+4frWozVRe58KurhGivUHqBaCUqQynBBBB8CDkH40Eh1ydJxJZW6KcGeTU6+UI7y+6VoyDzAFZkGPpHVyBQQ1cawdYa0FFhrO4aVWGp5JpVYqmoVWOmLhZIqqlkjrWBdIqfWjhI6SIXSOq1IWENY1dG7GmnkHsae08n/9k=;" vertex="1" parent="1">
          <mxGeometry x="310" y="370" width="288" height="288" as="geometry" />
        </mxCell>
      </root>
    </mxGraphModel>
  </diagram>
</mxfile>
